<?xml version="1.0" standalone="no"?><!DOCTYPE svg PUBLIC "-//W3C//DTD SVG 1.1//EN" "http://www.w3.org/Graphics/SVG/1.1/DTD/svg11.dtd"><svg class="icon" width="200px" height="200.00px" viewBox="0 0 1024 1024" version="1.1" xmlns="http://www.w3.org/2000/svg"><path d="M138.6 511.9c0-206.2 167.1-373.4 373.4-373.4 206.2 0 373.4 167.1 373.4 373.4 0 206.2-167.1 373.4-373.4 373.4-206.2-0.1-373.4-167.3-373.4-373.4zM512 63.9c-247.5 0-448 200.6-448 448s200.6 448 448 448 448-200.6 448-448c-0.1-247.4-200.6-448-448-448z m37.3 298.6c0-20.6-16.7-37.4-37.4-37.4s-37.4 16.7-37.4 37.4v165.9c0 12.5 6.2 24.2 16.6 31.1l124.5 83c17.2 11.4 40.4 6.8 51.8-10.4 11.4-17.2 6.8-40.4-10.4-51.8l-107.8-71.9 0.1-145.9z" /></svg>