<?xml version="1.0" standalone="no"?><!DOCTYPE svg PUBLIC "-//W3C//DTD SVG 1.1//EN" "http://www.w3.org/Graphics/SVG/1.1/DTD/svg11.dtd"><svg class="icon" width="200px" height="200.00px" viewBox="0 0 1024 1024" version="1.1" xmlns="http://www.w3.org/2000/svg"><path d="M407.4 457.7c14.6 14.6 38.3 14.6 52.9 0 14.6-14.6 14.6-38.3 0-52.9L312.6 257.2H381c20.6 0 37.4-16.7 37.4-37.4 0-20.6-16.7-37.4-37.4-37.4H222.4c-9.9 0-19.4 3.9-26.4 10.9s-10.9 16.5-10.9 26.4v158.6c0 20.6 16.7 37.4 37.4 37.4 20.6 0 37.4-16.7 37.4-37.4V310l147.5 147.7zM566 563.4c-14.6 14.6-14.6 38.3 0 52.9l147.6 147.6h-68.3c-20.6 0-37.4 16.7-37.4 37.4s16.7 37.4 37.4 37.4h158.6c9.9 0 19.4-3.9 26.4-10.9s10.9-16.5 10.9-26.4V642.7c0-20.6-16.7-37.4-37.4-37.4s-37.4 16.7-37.4 37.4V711L618.8 563.4c-14.6-14.5-38.2-14.5-52.8 0zM460.2 563.4c14.6 14.6 14.6 38.3 0 52.9L312.6 763.9H381c20.6 0 37.4 16.7 37.4 37.4s-16.7 37.4-37.4 37.4H222.4c-9.9 0-19.4-3.9-26.4-10.9s-10.9-16.5-10.9-26.4V642.7c0-20.6 16.7-37.4 37.4-37.4 20.6 0 37.4 16.7 37.4 37.4V711l147.6-147.6c14.5-14.5 38.2-14.5 52.7 0zM566 404.9c-14.6 14.6-14.6 38.3 0 52.9 14.6 14.6 38.3 14.6 52.9 0l147.6-147.6v68.3c0 20.6 16.7 37.4 37.4 37.4s37.4-16.7 37.4-37.4V219.9c0-9.9-3.9-19.4-10.9-26.4s-16.5-10.9-26.4-10.9H645.3c-20.6 0-37.4 16.7-37.4 37.4 0 20.6 16.7 37.4 37.4 37.4h68.3L566 404.9z" /></svg>