<?xml version="1.0" standalone="no"?><!DOCTYPE svg PUBLIC "-//W3C//DTD SVG 1.1//EN" "http://www.w3.org/Graphics/SVG/1.1/DTD/svg11.dtd"><svg class="icon" width="200px" height="200.00px" viewBox="0 0 1024 1024" version="1.1" xmlns="http://www.w3.org/2000/svg"><path d="M195.7 247.5c-14.6-14.6-14.6-38.2 0-52.8 14.6-14.6 38.2-14.6 52.8 0l121.1 121.1v-68.3c0-20.6 16.7-37.3 37.3-37.3 20.6 0 37.3 16.7 37.3 37.3v158.4c0 9.9-3.9 19.4-10.9 26.4s-16.5 10.9-26.4 10.9H248.5c-20.6 0-37.3-16.7-37.3-37.3 0-20.6 16.7-37.3 37.3-37.3h68.3L195.7 247.5zM829.3 775.5c14.6 14.6 14.6 38.2 0 52.8-14.6 14.6-38.2 14.6-52.8 0L655.4 707.2v68.3c0 20.6-16.7 37.3-37.3 37.3-20.6 0-37.3-16.7-37.3-37.3V617.1c0-9.9 3.9-19.4 10.9-26.4s16.5-10.9 26.4-10.9h158.4c20.6 0 37.3 16.7 37.3 37.3s-16.7 37.3-37.3 37.3h-68.3l121.1 121.1zM195.7 828.3c14.6 14.6 38.2 14.6 52.8 0l121.1-121.1v68.3c0 20.6 16.7 37.3 37.3 37.3 20.6 0 37.3-16.7 37.3-37.3V617.1c0-9.9-3.9-19.4-10.9-26.4s-16.5-10.9-26.4-10.9H248.5c-20.6 0-37.3 16.7-37.3 37.3s16.7 37.3 37.3 37.3h68.3L195.7 775.5c-14.6 14.6-14.6 38.2 0 52.8zM776.5 194.7c14.6-14.6 38.2-14.6 52.8 0 14.6 14.6 14.6 38.2 0 52.8L708.2 368.6h68.3c20.6 0 37.3 16.7 37.3 37.3 0 20.6-16.7 37.3-37.3 37.3H618.1c-9.9 0-19.4-3.9-26.4-10.9s-10.9-16.5-10.9-26.4V247.5c0-20.6 16.7-37.3 37.3-37.3 20.6 0 37.3 16.7 37.3 37.3v68.3l121.1-121.1z" /></svg>