<?xml version="1.0" standalone="no"?><!DOCTYPE svg PUBLIC "-//W3C//DTD SVG 1.1//EN" "http://www.w3.org/Graphics/SVG/1.1/DTD/svg11.dtd"><svg class="icon" width="200px" height="200.00px" viewBox="0 0 1024 1024" version="1.1" xmlns="http://www.w3.org/2000/svg"><path d="M337.3 727.1c101.5 101.5 266 101.5 367.5 0l29.6-29.6c14.6-14.6 38.2-14.6 52.8 0 14.6 14.6 14.6 38.2 0 52.8l-29.6 29.6c-130.6 130.6-342.4 130.6-473.1 0L248 743.4l4.4 66c1.4 20.6-14.2 38.4-34.8 39.7-20.6 1.4-38.4-14.2-39.7-34.8l-10.9-165c-0.7-10.2 2.8-20.2 9.7-27.7 6.9-7.5 16.5-11.9 26.7-12.1l179.9-3.9c20.6-0.4 37.7 15.9 38.1 36.5 0.4 20.6-15.9 37.7-36.5 38.1l-92.4 2 44.8 44.9zM694.9 297.1c-101.5-101.5-266-101.5-367.5 0l-29.6 29.6c-14.6 14.6-38.2 14.6-52.8 0-14.6-14.6-14.6-38.2 0-52.8l29.6-29.6c130.6-130.6 342.4-130.6 473.1 0l36.5 36.5-4.4-66c-1.4-20.6 14.2-38.4 34.8-39.7 20.6-1.4 38.4 14.2 39.7 34.8L865.2 375c0.7 10.1-2.8 20.1-9.7 27.6-6.8 7.5-16.4 11.9-26.6 12.2l-1-37.3 1 37.3h-1.1l-3 0.1-11.4 0.3c-9.8 0.2-23.8 0.6-40.6 1-33.7 0.8-78.7 1.7-124.2 2.5-20.6 0.3-37.6-16.1-37.9-36.7-0.3-20.6 16.1-37.6 36.7-37.9 32.4-0.5 64.5-1.2 92.4-1.8l-44.9-45.2z" /></svg>