<?xml version="1.0" standalone="no"?><!DOCTYPE svg PUBLIC "-//W3C//DTD SVG 1.1//EN" "http://www.w3.org/Graphics/SVG/1.1/DTD/svg11.dtd"><svg class="icon" width="200px" height="200.00px" viewBox="0 0 1024 1024" version="1.1" xmlns="http://www.w3.org/2000/svg"><path d="M1011.2 953.6L768 710.4c64-76.8 102.4-172.8 102.4-275.2 0-236.8-192-435.2-435.2-435.2S0 192 0 435.2c0 236.8 192 435.2 435.2 435.2 44.8 0 89.6-6.4 134.4-19.2 19.2-6.4 32-25.6 25.6-51.2-6.4-19.2-25.6-32-51.2-25.6-32 12.8-70.4 19.2-108.8 19.2-198.4 0-358.4-160-358.4-358.4s160-358.4 358.4-358.4c198.4 0 358.4 160 358.4 358.4 0 96-38.4 185.6-102.4 249.6-12.8 12.8-12.8 38.4 0 51.2 0 0 6.4 0 6.4 6.4 0 0 0 6.4 6.4 6.4l262.4 262.4c12.8 12.8 38.4 12.8 51.2 0 6.4-19.2 6.4-38.4-6.4-57.6z" /></svg>