<?xml version="1.0" standalone="no"?><!DOCTYPE svg PUBLIC "-//W3C//DTD SVG 1.1//EN" "http://www.w3.org/Graphics/SVG/1.1/DTD/svg11.dtd"><svg class="icon" width="200px" height="200.00px" viewBox="0 0 1024 1024" version="1.1" xmlns="http://www.w3.org/2000/svg"><path d="M139.3 511.3c0-206 167-373 373-373s373 167 373 373-167 373-373 373-373-166.9-373-373zM512.4 63.7c-247.2 0-447.7 200.4-447.7 447.7C64.7 758.5 265.1 959 512.4 959 759.6 959 960 758.6 960 511.3c0-247.1-200.4-447.6-447.6-447.6z m177.9 350.4c13.2-15.8 11.1-39.4-4.7-52.5s-39.4-11.1-52.5 4.7l-201.3 241-80.1-76.4c-14.9-14.2-38.6-13.7-52.7 1.3-14.2 14.9-13.7 38.6 1.3 52.7l109 103.9c7.5 7.1 17.6 10.8 27.9 10.3 10.3-0.6 19.9-5.4 26.5-13.4l226.6-271.6z" /></svg>