<?xml version="1.0" standalone="no"?><!DOCTYPE svg PUBLIC "-//W3C//DTD SVG 1.1//EN" "http://www.w3.org/Graphics/SVG/1.1/DTD/svg11.dtd"><svg class="icon" width="200px" height="200.00px" viewBox="0 0 1024 1024" version="1.1" xmlns="http://www.w3.org/2000/svg"><path d="M138.4 511.9c0-206.3 167.3-373.5 373.5-373.5 206.3 0 373.5 167.3 373.5 373.5 0 206.3-167.3 373.5-373.5 373.5-206.3 0-373.5-167.1-373.5-373.5zM511.9 63.7c-247.5 0-448.2 200.7-448.2 448.2s200.7 448.2 448.2 448.2 448.2-200.7 448.2-448.2S759.4 63.7 511.9 63.7z m0 224c-20.6 0-37.4 16.7-37.4 37.4v224.2c0 20.6 16.7 37.4 37.4 37.4s37.4-16.7 37.4-37.4V325.1c0-20.6-16.7-37.4-37.4-37.4z m37.4 411c0 20.6-16.7 37.4-37.4 37.4-20.6 0-37.4-16.7-37.4-37.4s16.7-37.4 37.4-37.4 37.4 16.8 37.4 37.4z" /></svg>