<?xml version="1.0" standalone="no"?><!DOCTYPE svg PUBLIC "-//W3C//DTD SVG 1.1//EN" "http://www.w3.org/Graphics/SVG/1.1/DTD/svg11.dtd"><svg class="icon" width="200px" height="200.00px" viewBox="0 0 1024 1024" version="1.1" xmlns="http://www.w3.org/2000/svg"><path d="M138.8 511.3c0-206.1 167.1-373.1 373.1-373.1C718 138.2 885 305.3 885 511.3c0 206.1-167.1 373.1-373.1 373.1-206 0-373.1-167-373.1-373.1zM512 63.5C264.7 63.5 64.2 264 64.2 511.3S264.7 959.1 512 959.1s447.8-200.5 447.8-447.8C959.7 264 759.3 63.5 512 63.5zM380 379.4c-14.6 14.6-14.6 38.2 0 52.8l79.2 79.2-79.2 79.1c-14.6 14.6-14.6 38.2 0 52.8 14.6 14.6 38.2 14.6 52.8 0l79.2-79.2 79.2 79.2c14.6 14.6 38.2 14.6 52.8 0 14.6-14.6 14.6-38.2 0-52.8l-79.2-79.2 79.2-79.2c14.6-14.6 14.6-38.2 0-52.8-14.6-14.6-38.2-14.6-52.8 0L512 458.5l-79.2-79.2c-14.6-14.5-38.2-14.5-52.8 0.1z" /></svg>