<?xml version="1.0" standalone="no"?><!DOCTYPE svg PUBLIC "-//W3C//DTD SVG 1.1//EN" "http://www.w3.org/Graphics/SVG/1.1/DTD/svg11.dtd"><svg class="icon" width="200px" height="200.00px" viewBox="0 0 1024 1024" version="1.1" xmlns="http://www.w3.org/2000/svg"><path d="M406.7 66.2c-16 0-30.1 10.1-35.3 25.2L325.2 227l-119.5-29.2c-16.2-4-33 3.3-41.3 17.8L69.1 383.4c-8.4 14.7-5.8 33.2 6.4 45.1l87.2 85.2-87.2 85.2c-12.1 11.8-14.7 30.4-6.4 45.1l95.4 167.8c8.2 14.5 25.1 21.7 41.3 17.8l115.8-28.3L351.3 932c3.9 17 18.9 29 36.4 29h209.8c15.9 0 30.1-10.1 35.3-25.2l46.5-136.3 139.2 30.2c15.2 3.3 30.9-3.2 39.3-16.3l95.4-149.1c9.5-14.9 7.3-34.4-5.3-46.8l-89.2-87.2 91.2-103.9c10.5-11.9 12.2-29.2 4.4-43l-95.4-167.8c-8.1-14.2-24.4-21.5-40.3-18l-139.2 30.2-46.7-136.3c-5.1-15.1-19.3-25.2-35.3-25.2H406.7z m-21.9 217.1l48.6-142.5h137.4l48.6 142.5c6.1 17.9 24.7 28.4 43.2 24.4l144.9-31.5 68.7 120.9-96.9 110.5c-13.1 14.9-12.2 37.4 2 51.2l92.8 90.6L809 751.1l-146.3-31.8c-18.5-4-37.1 6.5-43.2 24.4l-48.6 142.5H417.4l-31.6-138.7c-2.2-9.7-8.2-18.2-16.7-23.4-8.5-5.3-18.7-6.9-28.5-4.5l-125.2 30.6L148.2 632l93.9-91.7c7.2-7 11.2-16.6 11.2-26.7s-4-19.6-11.2-26.7l-93.9-91.7 67.3-118.3 125.2 30.6c18.7 4.6 37.8-5.9 44.1-24.2z m126.8 43.9c-102.9 0-186.4 83.5-186.4 186.4S408.7 700 511.6 700 698 616.6 698 513.6c0-102.9-83.4-186.4-186.4-186.4zM399.8 513.6c0-61.8 50.1-111.8 111.8-111.8 61.8 0 111.8 50.1 111.8 111.8s-50.1 111.8-111.8 111.8c-61.7 0.1-111.8-50-111.8-111.8z" /></svg>