<?xml version="1.0" standalone="no"?><!DOCTYPE svg PUBLIC "-//W3C//DTD SVG 1.1//EN" "http://www.w3.org/Graphics/SVG/1.1/DTD/svg11.dtd"><svg class="icon" width="200px" height="200.00px" viewBox="0 0 1024 1024" version="1.1" xmlns="http://www.w3.org/2000/svg"><path d="M139.3 511.1c0-206.2 167.1-373.3 373.3-373.3 206.2 0 373.3 167.1 373.3 373.3 0 206.2-167.1 373.3-373.3 373.3-206.2-0.1-373.3-167.2-373.3-373.3z m373.3-448C265.2 63.1 64.7 263.7 64.7 511c-0.1 247.4 200.5 448 447.9 448 247.4 0 447.9-200.6 447.9-447.9 0-247.4-200.5-448-447.9-448zM491.1 496.3c-10.8 15.8-16.4 34.5-17.2 55.6v22.3c0 6.2 2.3 11.9 6.8 16.3s10.2 6.4 16.3 6.4h30.5c6 0 11.8-1.7 16.6-6 4.6-4.1 7.2-9.7 8.4-15.3l0.3-1.2v-1.2c0-4.7 0.3-11.9 1.1-22.1 1-10.4 4.4-19.5 10.3-27.7l0.1-0.2c6.7-9.5 16.9-21.4 31.1-35.8 17.6-18.1 31.2-34.4 40.4-48.8 10-15.6 14.8-33.8 14.8-54.2 0-18.9-5.1-36.6-15.2-52.9-10.4-17.1-26.4-30.5-47.1-40.3-20.8-10.4-46-15.4-75-15.4-27.9 0-53 5.4-75.2 16.5-21.9 11-39.3 25.9-51.8 44.9v0.1c-12 18.5-18.5 38.9-19.4 60.9v0.4c0 6.2 2 12.2 6.8 16.8 4.8 4.6 10.8 6.4 16.8 6.4h27.1c5.9 0 11.8-1.5 16.7-5.5 4.9-4 7.6-9.4 8.9-15.1l0.1-0.3 0.1-0.3c3.6-20.1 11.2-33.8 21.9-42.6 10.6-8.8 25.7-13.8 46.3-13.8 17.2 0 31.7 4.4 44 12.8l0.1 0.1c11.8 7.9 17.1 17.8 17.1 30.6 0 8.9-2.6 17-8.1 24.7-6.2 8.7-16.5 20.2-31 34.7-18.3 18.1-32.6 34.5-42.6 49.2zM512.6 697.7m-37.3 0a37.3 37.3 0 1 0 74.6 0 37.3 37.3 0 1 0-74.6 0Z" /></svg>