<?xml version="1.0" standalone="no"?><!DOCTYPE svg PUBLIC "-//W3C//DTD SVG 1.1//EN" "http://www.w3.org/Graphics/SVG/1.1/DTD/svg11.dtd"><svg class="icon" width="200px" height="200.00px" viewBox="0 0 1024 1024" version="1.1" xmlns="http://www.w3.org/2000/svg"><path d="M138.8 511.3c0-206.1 167-373.1 373.1-373.1 206.1 0 373.1 167 373.1 373.1 0 206.1-167 373.1-373.1 373.1-206 0-373.1-167-373.1-373.1zM511.9 63.6c-247.3 0-447.7 200.5-447.7 447.7C64.2 758.6 264.7 959 511.9 959c247.3 0 447.7-200.5 447.7-447.7 0.1-247.2-200.4-447.7-447.7-447.7zM661.2 474c20.6 0 37.3 16.7 37.3 37.3 0 20.6-16.7 37.3-37.3 37.3H362.7c-20.6 0-37.3-16.7-37.3-37.3 0-20.6 16.7-37.3 37.3-37.3h298.5z" /></svg>