<?xml version="1.0" standalone="no"?><!DOCTYPE svg PUBLIC "-//W3C//DTD SVG 1.1//EN" "http://www.w3.org/Graphics/SVG/1.1/DTD/svg11.dtd"><svg class="icon" width="200px" height="200.00px" viewBox="0 0 1024 1024" version="1.1" xmlns="http://www.w3.org/2000/svg"><path d="M138.2 511.3c0-206 167-373.1 373.1-373.1 206 0 373.1 167 373.1 373.1 0 206-167 373.1-373.1 373.1-206 0-373.1-167.1-373.1-373.1zM511.3 63.6C264 63.6 63.6 264 63.6 511.3 63.6 758.6 264.1 959 511.3 959 758.6 959 959 758.6 959 511.3c0-247.2-200.4-447.7-447.7-447.7zM474 324.8c0-20.6 16.7-37.3 37.3-37.3s37.3 16.7 37.3 37.3c0 20.6-16.7 37.3-37.3 37.3S474 345.4 474 324.8z m37.3 410.4c20.6 0 37.3-16.7 37.3-37.3V474c0-20.6-16.7-37.3-37.3-37.3S474 453.4 474 474v223.9c0 20.6 16.7 37.3 37.3 37.3z" /></svg>