<?xml version="1.0" standalone="no"?><!DOCTYPE svg PUBLIC "-//W3C//DTD SVG 1.1//EN" "http://www.w3.org/Graphics/SVG/1.1/DTD/svg11.dtd"><svg class="icon" width="200px" height="200.00px" viewBox="0 0 1024 1024" version="1.1" xmlns="http://www.w3.org/2000/svg"><path d="M138.9 511.7c0-205.9 166.9-372.8 372.8-372.8s372.8 166.9 372.8 372.8-166.9 372.8-372.8 372.8-372.8-166.9-372.8-372.8zM511.7 64.4c-247.1 0-447.3 200.3-447.3 447.3C64.4 758.8 264.7 959 511.7 959 758.8 959 959 758.7 959 511.7S758.7 64.4 511.7 64.4zM327.1 491.2c-14.6-14.6-14.6-38.2 0-52.7 14.6-14.6 38.2-14.6 52.7 0l131.8 131.8 131.8-131.8c14.6-14.6 38.2-14.6 52.7 0 14.6 14.6 14.6 38.2 0 52.7L538 649.4c-14.6 14.6-38.2 14.6-52.7 0L327.1 491.2z" /></svg>