<?xml version="1.0" standalone="no"?><!DOCTYPE svg PUBLIC "-//W3C//DTD SVG 1.1//EN" "http://www.w3.org/Graphics/SVG/1.1/DTD/svg11.dtd"><svg class="icon" width="200px" height="200.00px" viewBox="0 0 1024 1024" version="1.1" xmlns="http://www.w3.org/2000/svg"><path d="M138.5 512.2c0-206.2 167.2-373.4 373.4-373.4S885.3 306 885.3 512.2 718.1 885.6 511.9 885.6 138.5 718.5 138.5 512.2zM511.9 64.1c-247.5 0-448.1 200.6-448.1 448.1s200.6 448.1 448.1 448.1S960 759.7 960 512.2 759.4 64.1 511.9 64.1z m0 261.4c-20.6 0-37.4 16.7-37.4 37.4v112h-112c-20.6 0-37.4 16.7-37.4 37.4 0 20.6 16.7 37.4 37.4 37.4h112v112c0 20.6 16.7 37.4 37.4 37.4 20.6 0 37.4-16.7 37.4-37.4v-112h112c20.6 0 37.4-16.7 37.4-37.4 0-20.6-16.7-37.4-37.4-37.4h-112v-112c0-20.6-16.8-37.4-37.4-37.4z" /></svg>