<?xml version="1.0" standalone="no"?><!DOCTYPE svg PUBLIC "-//W3C//DTD SVG 1.1//EN" "http://www.w3.org/Graphics/SVG/1.1/DTD/svg11.dtd"><svg class="icon" width="200px" height="200.00px" viewBox="0 0 1024 1024" version="1.1" xmlns="http://www.w3.org/2000/svg"><path d="M842.7 177.1c0 27-21.9 48.9-48.9 48.9s-48.9-21.9-48.9-48.9 21.9-48.9 48.9-48.9c27 0.1 48.9 21.9 48.9 48.9zM631 388.9c27 0 48.9-21.9 48.9-48.9S658 291.1 631 291.1 582.1 313 582.1 340s21.9 48.9 48.9 48.9z m195.4 97.7c27 0 48.9-21.9 48.9-48.9s-21.9-48.9-48.9-48.9-48.9 21.9-48.9 48.9c0.1 27 21.9 48.9 48.9 48.9zM251.9 682.8C171 542.5 219 363.2 359.3 282.2c9.3-5.3 18.7-10.1 28.2-14.3-14.7 95.5 1.7 196.5 53.8 286.7 59 102.1 152.7 171.7 257.6 202.3-14.1 12.3-29.6 23.4-46.5 33.2C512.2 871 332.9 823 251.9 682.8z m74.8-457c-171.4 99-230.1 318.1-131.2 489.5 99 171.4 318.1 230.1 489.5 131.2 40.8-23.5 75.2-53.9 102.7-88.9 15.4-19.6 3.9-48.6-20.8-52.3-109.1-16.3-209.8-80.4-269.2-183.2-53.5-92.7-62.9-198.8-34.7-294 7.1-24-14.3-46.7-38.6-41-33.5 7.8-66.5 20.7-97.7 38.7z" /></svg>