<?xml version="1.0" standalone="no"?><!DOCTYPE svg PUBLIC "-//W3C//DTD SVG 1.1//EN" "http://www.w3.org/Graphics/SVG/1.1/DTD/svg11.dtd"><svg class="icon" width="200px" height="200.00px" viewBox="0 0 1024 1024" version="1.1" xmlns="http://www.w3.org/2000/svg"><path d="M884.2 139.4c-17.1-17.1-44.9-17.1-62 0L757.7 204c-102.7-73.2-246.2-63.7-338.3 28.4l-13.1 13.1c-9.9 9.9-9.9 25.9 0 35.8l75.1 75.1-61.9 61.9c-17.1 17.1-17.1 44.9 0 62s44.9 17.1 62 0l61.9-61.9 62 62-61.9 61.9c-17.1 17.1-17.1 44.9 0 62s44.9 17.1 62 0l61.9-62 75.1 75.1c9.9 9.9 25.9 9.9 35.8 0l13.1-13.1C883.5 512.2 893 368.7 819.8 266l64.6-64.6c17-17.1 17-44.8-0.2-62zM756.3 507.5L516.2 267.3c67-39.6 154.7-30.7 212.5 26.5l0.5 0.5 0.5 0.5c57.4 57.9 66.2 145.6 26.6 212.7zM618.4 741.3l-336.1-336c-9.9-9.9-25.9-9.9-35.8 0l-13.1 13.1C141.3 510.5 131.8 654 205 756.7l-64.6 64.6c-17.1 17.1-17.1 44.9 0 62s44.9 17.1 62 0l64.6-64.6c102.7 73.2 246.2 63.7 338.3-28.4l13.1-13.1c9.9-9.9 9.9-26 0-35.9z m-323-13c-57.8-57.8-66.8-145.8-27.1-213l240.1 240.1c-67.2 39.6-155.2 30.6-213-27.1z" /></svg>