<?xml version="1.0" standalone="no"?><!DOCTYPE svg PUBLIC "-//W3C//DTD SVG 1.1//EN" "http://www.w3.org/Graphics/SVG/1.1/DTD/svg11.dtd"><svg class="icon" width="200px" height="200.00px" viewBox="0 0 1024 1024" version="1.1" xmlns="http://www.w3.org/2000/svg"><path d="M363.1 364.9c23.9-53.7 75.4-129.4 184.4-129.4 110 0 190.1 92.3 190.1 182 0 19.1 15.5 34.6 34.6 34.6 9.1 0 32.1 5.5 52.5 21 18.9 14.4 33.9 36.1 33.9 69.4 0 26.4-8.7 54.1-24.7 74.5-15.3 19.5-37.3 32.6-67.5 32.6-19.4 0-30.3 0-35.7 0.1-1.3 0-2.5 0-3.4 0.1-0.4 0-1 0-1.6 0.1h-0.5c-0.3 0-0.6 0-0.9 0.1-0.1 0-2.2 0.2-4.7 0.7-0.7 0.2-2.2 0.5-4.1 1.2-1.1 0.4-5.9 2.1-10.7 6.1-2.6 2.4-7.8 9.4-9.9 14-1.8 6.3-1.6 19.2 0.2 25.4 4.9 12.1 14.9 17.1 16.2 17.8l0.1 0.1c4.5 2.3 8.6 3 8.9 3.1 1.2 0.2 2.1 0.4 2.5 0.4 1.4 0.2 2.6 0.2 2.8 0.3 0.4 0 0.8 0 1.2 0.1h1.4c3.2 0.1 8.8 0.2 13.3 0.2l6 0.1h2.5v-0.6 0.6c2.4 0 4.8-0.2 7-0.6h9.2c53.3 0 94.7-24.4 121.8-59 26.5-33.8 39.4-76.9 39.4-117.2 0-58.4-28.1-99.1-61.1-124.3-19.7-15.1-41.8-25.1-61.9-30.5-15.2-116-119.4-221.5-256.9-221.5-134.7 0-204.5 86.6-237.6 149.8-73.8 2.2-126.4 31.4-160.8 70.9-36.6 42-50.8 93.6-50.8 130.4v1.8c3.9 74.7 31 125.7 67.8 157.9 35.9 31.3 78.2 42.2 109.2 42.2 11.9 0 19.1 0 23.1-0.1 1.6 0 3.8-0.1 5.6-0.2 0.2 0 2.2-0.2 4.6-0.7 0.7-0.2 2.1-0.5 3.8-1 1.1-0.4 5.2-1.7 9.6-4.9 3.5-2.6 17.9-14.8 13.3-35.4-3.4-15.1-15-21.6-16.5-22.4l-0.1-0.1c-3.2-1.8-5.9-2.7-6.9-3-1.3-0.4-2.4-0.6-3-0.8-1.2-0.3-2.2-0.4-2.7-0.5-1-0.1-1.8-0.2-2.1-0.2-2.2-0.2-5.8-0.3-7.6-0.3l-3.1-0.1H291.9v0.6-0.6c-2.5-0.1-5 0.2-7.3 0.6h-9.2c-16.5 0-42-6.2-63.8-25.1-20.7-18.1-41-50.4-44.2-108.4 0.2-21.6 9.4-56.1 33.8-84.1 23.4-26.9 62.8-50 128.8-47.1 14.2 0.4 27.3-7.7 33.1-20.7z m-71.2 286.4l-0.7 32.8 0.7-32.8z m255.6-104.8c0-19.1-15.5-34.6-34.6-34.6s-34.6 15.5-34.6 34.6v193.1l-44.7-44.7c-13.5-13.5-35.4-13.5-48.9 0s-13.5 35.4 0 48.9l103.7 103.7c6.5 6.5 15.3 10.1 24.4 10.1 9.2 0 18-3.6 24.4-10.1l103.7-103.7c13.5-13.5 13.5-35.4 0-48.9s-35.4-13.5-48.9 0l-44.7 44.7V546.5z" /></svg>