<?xml version="1.0" standalone="no"?><!DOCTYPE svg PUBLIC "-//W3C//DTD SVG 1.1//EN" "http://www.w3.org/Graphics/SVG/1.1/DTD/svg11.dtd"><svg class="icon" width="200px" height="200.00px" viewBox="0 0 1024 1024" version="1.1" xmlns="http://www.w3.org/2000/svg"><path d="M512.3 63.1C264.5 63.1 63.6 264 63.6 511.8c0 137.4 61.7 260.3 159 342.6 2.5 2.9 5.6 5.4 9 7.4 76.9 61.7 174.5 98.7 280.8 98.7 106.3 0 203.9-36.9 280.8-98.7 3.4-2 6.4-4.5 9-7.4 97.2-82.3 159-205.3 159-342.6-0.1-247.8-201-448.7-448.9-448.7z m0 822.7c-81 0-155.9-25.7-217.1-69.4l1.4-3.8c33-90.7 119.2-151.1 215.7-151.1 95.4 0 183.6 51.9 211 134.3L730 816c-61.2 43.9-136.4 69.8-217.7 69.8zM400.2 474.4c0-62 50.2-112.2 112.2-112.2s112.2 50.2 112.2 112.2-50.2 112.2-112.2 112.2-112.2-50.2-112.2-112.2z m390.4 287.3c-27.3-71.3-84.4-121.9-151.4-149.8 37-34.2 60.2-83.1 60.2-137.4 0-103.3-83.7-187-187-187s-187 83.7-187 187c0 55.2 23.9 104.8 62 139-66 29.7-120.4 82.5-151.5 150.2-60.6-66.5-97.5-154.8-97.5-251.8 0-206.5 167.4-373.9 373.9-373.9s373.9 167.4 373.9 373.9c0.1 96-36.1 183.5-95.6 249.8z" /></svg>