<?xml version="1.0" standalone="no"?><!DOCTYPE svg PUBLIC "-//W3C//DTD SVG 1.1//EN" "http://www.w3.org/Graphics/SVG/1.1/DTD/svg11.dtd"><svg class="icon" width="200px" height="200.00px" viewBox="0 0 1024 1024" version="1.1" xmlns="http://www.w3.org/2000/svg"><path d="M848.9 139.7H176.5c-61.9 0-112.1 50.2-112.1 112.1v522.9c0 61.9 50.2 112.1 112.1 112.1h672.3c61.9 0 112.1-50.2 112.1-112.1V551 251.8c0-61.9-50.2-112.1-112-112.1z m37.3 635c0 20.6-16.7 37.4-37.4 37.4H176.6c-20.6 0-37.4-16.7-37.4-37.4v-20.8l171.6-156 120.2 80c28 18.6 65 16.3 90.4-5.7l235.4-204 129.4 100.7v205.8z m0-300.5l-83.6-65c-28.1-21.9-67.8-20.8-94.8 2.5L472.4 615.8l-120.1-80.1c-28.5-19-66.3-16.2-91.7 6.9L139.2 652.9V251.8c0-20.6 16.7-37.4 37.4-37.4H849c20.6 0 37.4 16.7 37.4 37.4v222.4zM438 363.8m-74.7 0a74.7 74.7 0 1 0 149.4 0 74.7 74.7 0 1 0-149.4 0Z" /></svg>