<?xml version="1.0" standalone="no"?><!DOCTYPE svg PUBLIC "-//W3C//DTD SVG 1.1//EN" "http://www.w3.org/Graphics/SVG/1.1/DTD/svg11.dtd"><svg class="icon" width="200px" height="200.00px" viewBox="0 0 1024 1024" version="1.1" xmlns="http://www.w3.org/2000/svg"><path d="M512 441.6c38.4 0 51.2 12.8 51.2 12.8l64-172.8c0-6.4-38.4-25.6-115.2-25.6s-115.2 19.2-115.2 19.2l64 172.8c0 6.4 12.8-6.4 51.2-6.4zM793.6 576l-179.2-32s6.4 19.2-12.8 51.2c-19.2 25.6-38.4 32-38.4 32l121.6 140.8s38.4-19.2 76.8-89.6c38.4-57.6 32-102.4 32-102.4z m-371.2 19.2c-12.8-38.4-12.8-51.2-12.8-51.2L230.4 576s-6.4 44.8 32 108.8S339.2 768 339.2 768l121.6-140.8s-19.2 0-38.4-32zM435.2 544c0 38.4 32 76.8 76.8 76.8 38.4 0 76.8-32 76.8-76.8 0-38.4-32-76.8-76.8-76.8s-76.8 32-76.8 76.8zM512 1024c-281.6 0-512-230.4-512-512s230.4-512 512-512c108.8 0 211.2 32 300.8 96 12.8 12.8 19.2 32 6.4 44.8s-32 19.2-44.8 6.4C697.6 89.6 608 64 512 64 262.4 64 64 262.4 64 512s198.4 448 448 448 448-198.4 448-448c0-76.8-19.2-153.6-57.6-224-6.4-12.8-6.4-32 12.8-44.8 12.8-6.4 32-6.4 44.8 12.8 38.4 76.8 64 166.4 64 256 0 281.6-230.4 512-512 512z" /></svg>